<?xml version="1.0" encoding="utf-8"?>
<!-- Generator: Adobe Illustrator 27.6.1, SVG Export Plug-In . SVG Version: 6.00 Build 0)  -->
<svg version="1.1" id="Livello_1" xmlns="http://www.w3.org/2000/svg" xmlns:xlink="http://www.w3.org/1999/xlink" x="0px" y="0px"
	 viewBox="0 0 246.9 54.6" style="enable-background:new 0 0 246.9 54.6;" xml:space="preserve">
<style type="text/css">
	.st0{fill:#0BA5AD;}
</style>
<g>
	<path class="st0" d="M3.7,23.2l-3.6-8.4c-0.2-0.5-0.1-1,0.3-1.3l0,0c0.5-0.4,1.1-0.3,1.5,0.1l8.5,9.1c0.2,0.2,0.5,0.4,0.8,0.4
		l13.4-0.3c0.7,0,1.2-0.7,1-1.4L20.5,3.3c-0.1-0.3,0-0.7,0.2-0.9l0.1-0.2c0.4-0.6,1.4-0.6,1.8,0l14,19.8c0.2,0.3,0.6,0.5,0.9,0.5
		c17.2-0.3,21.3,2.3,21.3,4c0,1.7-4,4.6-21.1,5.1c-0.4,0-0.7,0.2-0.9,0.5c-1.8,2.7-10.4,16.1-13.1,20.4c-0.4,0.6-1.4,0.7-1.8,0.1
		l-0.1-0.2c-0.2-0.3-0.3-0.6-0.2-0.9L25.9,33c0.2-0.7-0.4-1.4-1.1-1.4L11.4,32c-0.3,0-0.6,0.1-0.8,0.4l-8.1,9.5
		c-0.4,0.4-1,0.5-1.5,0.2l0,0c-0.4-0.3-0.5-0.8-0.4-1.3l3.3-8.5c0.6-1.5,0.8-3.1,0.8-4.7v0C4.7,26.1,4.3,24.6,3.7,23.2z"/>
	<g>
		<path class="st0" d="M79,12l0.3,3.4c2.1-2.6,5.1-3.9,8.7-3.9c3.9,0,6.6,1.5,8,4.6c2.1-3.1,5.2-4.6,9.1-4.6c3.3,0,5.7,1,7.3,2.9
			c1.6,1.9,2.4,4.8,2.4,8.6v19.4h-8.1V23c0-1.7-0.3-3-1-3.8c-0.7-0.8-1.9-1.2-3.6-1.2c-2.4,0-4.1,1.2-5,3.5l0,20.8H89V23
			c0-1.8-0.3-3-1-3.8c-0.7-0.8-1.9-1.2-3.5-1.2c-2.3,0-4,1-5,2.9v21.4h-8.1V12H79z"/>
		<path class="st0" d="M132.3,30.9L138,12h8.7l-12.2,35l-0.7,1.6c-1.8,4-4.8,5.9-9,5.9c-1.2,0-2.4-0.2-3.6-0.5v-6.1l1.2,0
			c1.5,0,2.7-0.2,3.4-0.7c0.8-0.5,1.3-1.2,1.8-2.3l1-2.5L118,12h8.7L132.3,30.9z"/>
		<path class="st0" d="M181.1,8.3h-12.5v34h-8.4v-34h-12.3V1.5h33.2V8.3z"/>
		<path class="st0" d="M200.5,19.6c-1.1-0.1-2.1-0.2-2.9-0.2c-3.1,0-5.1,1-6,3.1v19.8h-8.1V12h7.6l0.2,3.6c1.6-2.8,3.9-4.2,6.8-4.2
			c0.9,0,1.7,0.1,2.5,0.4L200.5,19.6z"/>
		<path class="st0" d="M204.4,4.2c0-1.2,0.4-2.2,1.2-3c0.8-0.8,1.9-1.2,3.3-1.2c1.4,0,2.5,0.4,3.3,1.2c0.8,0.8,1.2,1.8,1.2,3
			c0,1.2-0.4,2.2-1.2,3c-0.8,0.8-1.9,1.2-3.3,1.2c-1.4,0-2.5-0.4-3.3-1.2C204.8,6.4,204.4,5.4,204.4,4.2z M213,42.3h-8.1V12h8.1
			V42.3z"/>
		<path class="st0" d="M246.9,27.5c0,4.7-1.1,8.4-3.2,11.2c-2.1,2.8-5,4.2-8.6,4.2c-3.1,0-5.5-1.1-7.4-3.2V54h-8.1V12h7.5l0.3,3
			c2-2.4,4.5-3.5,7.7-3.5c3.7,0,6.6,1.4,8.7,4.1c2.1,2.8,3.1,6.6,3.1,11.4V27.5z M238.8,26.9c0-2.8-0.5-5-1.5-6.5
			c-1-1.5-2.5-2.3-4.4-2.3c-2.5,0-4.3,1-5.2,2.9v12.4c1,2,2.8,3,5.3,3C236.9,36.4,238.8,33.2,238.8,26.9z"/>
	</g>
</g>
</svg>
